<?xml version="1.0" standalone="no"?>
<!DOCTYPE svg PUBLIC "-//W3C//DTD SVG 20010904//EN"
 "http://www.w3.org/TR/2001/REC-SVG-20010904/DTD/svg10.dtd">
<svg version="1.0" xmlns="http://www.w3.org/2000/svg"
 width="600.000000pt" height="600.000000pt" viewBox="0 0 600.000000 600.000000"
 preserveAspectRatio="xMidYMid meet">

<g transform="translate(0.000000,600.000000) scale(0.100000,-0.100000)"
fill="#000000" stroke="none">
<path d="M0 3000 l0 -3000 3000 0 3000 0 0 3000 0 3000 -3000 0 -3000 0 0
-3000z m4370 866 c0 -33 -139 -1158 -145 -1174 -3 -9 -25 -12 -77 -10 l-73 3
-3 37 -3 36 -25 -23 c-47 -43 -94 -60 -174 -60 -167 0 -230 92 -230 335 0 188
44 358 118 455 55 72 130 108 225 108 80 0 122 -16 156 -59 12 -15 23 -25 25
-23 1 2 13 89 25 193 12 105 25 194 27 198 3 4 39 8 80 8 72 0 74 -1 74 -24z
m-3780 -297 c31 -7 65 -23 85 -40 18 -16 35 -29 38 -29 3 0 7 12 9 28 3 27 4
27 81 30 l77 3 0 -29 c0 -46 -99 -832 -111 -887 -29 -127 -118 -234 -227 -276
-70 -27 -272 -41 -272 -19 0 8 5 42 11 77 l11 63 60 0 c129 0 211 47 246 143
19 51 35 127 27 127 -3 0 -24 -13 -47 -30 -55 -38 -138 -55 -203 -40 -112 25
-167 84 -186 198 -10 62 3 237 26 357 36 190 122 298 258 325 59 11 60 11 117
-1z m842 -11 c54 -16 107 -64 134 -122 21 -44 24 -65 23 -156 -1 -58 -4 -130
-7 -160 l-7 -55 -240 -5 -240 -5 -3 -77 c-3 -73 -2 -78 29 -112 78 -89 210
-63 284 58 9 15 15 14 67 -2 32 -10 60 -21 63 -24 11 -11 -35 -88 -76 -129
-85 -85 -232 -120 -353 -85 -75 22 -136 81 -157 151 -31 108 -8 395 41 528 63
167 250 250 442 195z m736 12 c61 -14 113 -56 143 -117 19 -41 23 -68 27 -183
9 -310 -88 -537 -251 -585 -97 -29 -180 -16 -234 37 -18 17 -34 30 -36 27 -2
-2 -14 -91 -27 -196 l-23 -193 -79 0 c-73 0 -78 1 -78 21 0 30 139 1151 145
1167 3 8 29 12 80 12 l75 0 0 -35 0 -35 45 35 c25 19 62 37 83 40 20 4 42 8
47 10 18 6 33 5 83 -5z m652 -1 c36 -8 62 -21 85 -44 34 -35 45 -31 45 16 0
17 8 19 80 19 70 0 80 -2 79 -17 0 -10 -23 -207 -52 -438 l-52 -420 -75 0 -75
0 -5 39 -5 38 -20 -22 c-11 -12 -38 -32 -60 -43 -55 -29 -173 -30 -229 -3 -46
23 -89 86 -108 159 -19 77 -14 262 11 376 46 207 129 314 264 341 59 11 60 11
117 -1z m2086 -14 c54 -22 99 -68 125 -129 18 -42 21 -68 20 -151 -1 -55 -5
-125 -9 -155 l-7 -55 -242 -3 -243 -2 0 -81 c0 -81 0 -81 39 -120 36 -36 43
-39 96 -39 70 0 118 21 153 69 14 20 29 39 32 44 6 8 109 -19 123 -33 13 -12
-26 -81 -73 -129 -23 -24 -67 -55 -98 -69 -50 -24 -70 -27 -157 -27 -110 0
-154 15 -206 72 -58 62 -64 85 -64 253 1 165 19 291 55 375 38 89 136 169 237
195 53 13 171 5 219 -15z m684 14 c114 -24 200 -125 200 -235 0 -29 -3 -55 -7
-57 -5 -3 -39 -6 -78 -8 l-69 -4 -9 44 c-12 58 -30 86 -72 105 -73 35 -167 4
-210 -68 -28 -48 -53 -176 -62 -322 -5 -84 -3 -106 12 -137 22 -46 59 -67 120
-67 83 0 150 53 169 133 l7 28 72 -7 c40 -3 75 -9 80 -13 13 -12 -22 -109 -56
-153 -71 -94 -187 -144 -316 -136 -146 9 -235 88 -256 229 -14 96 27 382 70
475 68 152 232 230 405 193z m-1929 -9 c24 -14 24 -31 -2 -109 l-21 -62 -42 6
c-54 8 -116 -8 -155 -40 -57 -49 -69 -92 -106 -384 -19 -149 -37 -276 -40
-281 -9 -15 -145 -13 -150 3 -3 6 19 203 48 437 l52 425 82 3 83 3 -6 -33 c-3
-18 -8 -44 -10 -58 -5 -20 3 -16 46 28 28 28 65 56 83 61 44 13 114 13 138 1z"/>
<path d="M3934 3411 c-45 -27 -70 -64 -93 -134 -39 -119 -53 -289 -30 -371 22
-79 95 -112 173 -77 75 33 116 129 138 321 20 186 -18 280 -114 280 -24 0 -56
-8 -74 -19z"/>
<path d="M485 3411 c-41 -25 -71 -60 -89 -102 -22 -53 -49 -252 -44 -335 3
-65 7 -77 33 -104 73 -76 193 -51 246 51 13 27 26 93 41 208 18 149 19 173 7
212 -25 79 -123 115 -194 70z"/>
<path d="M1224 3416 c-17 -8 -43 -29 -57 -47 -29 -38 -63 -157 -49 -171 5 -5
76 -7 158 -6 l149 3 7 50 c10 68 -5 117 -47 154 -29 25 -44 31 -83 31 -26 -1
-61 -7 -78 -14z"/>
<path d="M1995 3420 c-75 -31 -123 -152 -140 -356 -14 -160 28 -247 118 -247
120 0 191 128 204 368 7 131 -5 183 -48 219 -32 27 -91 34 -134 16z"/>
<path d="M2724 3420 c-88 -36 -150 -223 -143 -432 5 -112 21 -145 84 -166 73
-24 153 23 189 111 27 67 48 189 49 292 1 85 -2 106 -21 142 -12 23 -31 47
-41 53 -23 12 -87 12 -117 0z"/>
<path d="M4682 3413 c-57 -28 -79 -67 -106 -185 l-6 -28 160 0 160 0 0 68 c0
77 -21 122 -69 147 -39 19 -97 19 -139 -2z"/>
</g>
</svg>
